<svg width="34" height="34" viewBox="0 0 34 34" fill="none" xmlns="http://www.w3.org/2000/svg">
<rect width="34" height="34" rx="17" fill="#ECC5A2"/>
<path d="M21.244 15.4545L22.8832 17.0938L21.244 18.733L19.6048 17.0938L21.244 15.4545Z" fill="#1A1A1C"/>
<path d="M15.9307 24.0476L14.2915 25.6868L12.6523 24.0476L14.2915 22.4084L15.9307 24.0476Z" fill="#1A1A1C"/>
<path d="M18.9258 13.1364L20.565 14.7756L18.9258 16.4148L17.2866 14.7756L18.9258 13.1364Z" fill="#1A1A1C"/>
<path d="M18.2488 21.7294L16.6096 23.3686L14.9704 21.7294L16.6096 20.0902L18.2488 21.7294Z" fill="#1A1A1C"/>
<path d="M16.6076 10.8182L18.2468 12.4574L16.6076 14.0966L14.9684 12.4574L16.6076 10.8182Z" fill="#1A1A1C"/>
<path d="M20.567 19.4113L18.9278 21.0505L17.2886 19.4113L18.9278 17.772L20.567 19.4113Z" fill="#1A1A1C"/>
<path d="M14.2894 8.5L15.9286 10.1392L14.2894 11.7784L12.6502 10.1392L14.2894 8.5Z" fill="#1A1A1C"/>
<path d="M18.2488 17.0931L16.6096 18.7323L14.9704 17.0931L16.6096 15.4539L18.2488 17.0931Z" fill="#1A1A1C"/>
<path d="M14.0909 17.0931L12.4517 18.7323L10.8125 17.0931L12.4517 15.4539L14.0909 17.0931Z" fill="#1A1A1C"/>
</svg>
