<svg width="89" height="47" viewBox="0 0 89 47" fill="none" xmlns="http://www.w3.org/2000/svg">
<rect width="89" height="32" rx="16" fill="#1A1A1C"/>
<rect width="89" height="32.0063" rx="16.0032" fill="url(#paint0_linear_5207_16623)"/>
<path d="M18.0469 21H15.5996V19.9062H17.9648C18.8079 19.9062 19.5052 19.7445 20.0566 19.4209C20.6126 19.0973 21.0273 18.6348 21.3008 18.0332C21.5742 17.4316 21.7109 16.7161 21.7109 15.8867C21.7109 15.0664 21.5765 14.36 21.3076 13.7676C21.0387 13.1706 20.6354 12.7126 20.0977 12.3936C19.5645 12.07 18.8991 11.9082 18.1016 11.9082H15.5449V10.8145H18.1836C19.1725 10.8145 20.0179 11.0173 20.7197 11.4229C21.4261 11.8285 21.9661 12.4118 22.3398 13.1729C22.7135 13.9294 22.9004 14.834 22.9004 15.8867C22.9004 16.9486 22.7113 17.8623 22.333 18.6279C21.9548 19.389 21.4033 19.9746 20.6787 20.3848C19.9587 20.7949 19.0814 21 18.0469 21ZM16.1328 10.8145V21H14.9023V10.8145H16.1328ZM27.248 21.1641C26.5599 21.1641 25.9561 21 25.4365 20.6719C24.917 20.3438 24.5114 19.8835 24.2197 19.291C23.9326 18.6986 23.7891 18.0104 23.7891 17.2266C23.7891 16.429 23.9326 15.734 24.2197 15.1416C24.5114 14.5446 24.917 14.082 25.4365 13.7539C25.9561 13.4258 26.5599 13.2617 27.248 13.2617C27.9408 13.2617 28.5469 13.4258 29.0664 13.7539C29.5859 14.082 29.9915 14.5446 30.2832 15.1416C30.5749 15.734 30.7207 16.429 30.7207 17.2266C30.7207 18.0104 30.5749 18.6986 30.2832 19.291C29.9915 19.8835 29.5859 20.3438 29.0664 20.6719C28.5469 21 27.9408 21.1641 27.248 21.1641ZM27.248 20.1113C27.7767 20.1113 28.2096 19.9769 28.5469 19.708C28.8841 19.4391 29.1348 19.0859 29.2988 18.6484C29.4629 18.2064 29.5449 17.7324 29.5449 17.2266C29.5449 16.7116 29.4629 16.2331 29.2988 15.791C29.1348 15.349 28.8841 14.9935 28.5469 14.7246C28.2096 14.4512 27.7767 14.3145 27.248 14.3145C26.7285 14.3145 26.3001 14.4512 25.9629 14.7246C25.6257 14.9935 25.375 15.349 25.2109 15.791C25.0469 16.2331 24.9648 16.7116 24.9648 17.2266C24.9648 17.7324 25.0469 18.2064 25.2109 18.6484C25.375 19.0859 25.6257 19.4391 25.9629 19.708C26.3001 19.9769 26.7285 20.1113 27.248 20.1113ZM33.3184 21L30.9941 13.3574H32.2246L33.8789 19.209H33.9609L35.5879 13.3574H36.8457L38.4453 19.1953H38.5273L40.1816 13.3574H41.4121L39.0879 21H37.9395L36.2578 15.1348H36.1484L34.4668 21H33.3184ZM43.4766 16.4062V21H42.3145V13.3574H43.4355V14.5605H43.5449C43.7227 14.1686 43.9938 13.8542 44.3584 13.6172C44.723 13.3802 45.1947 13.2617 45.7734 13.2617C46.2884 13.2617 46.7396 13.3665 47.127 13.5762C47.5143 13.7858 47.8151 14.1048 48.0293 14.5332C48.248 14.957 48.3574 15.4948 48.3574 16.1465V21H47.1953V16.2285C47.1953 15.6315 47.0381 15.1644 46.7236 14.8271C46.4092 14.4854 45.9808 14.3145 45.4385 14.3145C45.0648 14.3145 44.7298 14.3965 44.4336 14.5605C44.1374 14.7246 43.9027 14.9616 43.7295 15.2715C43.5609 15.5814 43.4766 15.9596 43.4766 16.4062ZM51.0234 10.8145V21H49.8613V10.8145H51.0234ZM55.6172 21.1641C54.929 21.1641 54.3252 21 53.8057 20.6719C53.2861 20.3438 52.8805 19.8835 52.5889 19.291C52.3018 18.6986 52.1582 18.0104 52.1582 17.2266C52.1582 16.429 52.3018 15.734 52.5889 15.1416C52.8805 14.5446 53.2861 14.082 53.8057 13.7539C54.3252 13.4258 54.929 13.2617 55.6172 13.2617C56.3099 13.2617 56.916 13.4258 57.4355 13.7539C57.9551 14.082 58.3607 14.5446 58.6523 15.1416C58.944 15.734 59.0898 16.429 59.0898 17.2266C59.0898 18.0104 58.944 18.6986 58.6523 19.291C58.3607 19.8835 57.9551 20.3438 57.4355 20.6719C56.916 21 56.3099 21.1641 55.6172 21.1641ZM55.6172 20.1113C56.1458 20.1113 56.5788 19.9769 56.916 19.708C57.2533 19.4391 57.5039 19.0859 57.668 18.6484C57.832 18.2064 57.9141 17.7324 57.9141 17.2266C57.9141 16.7116 57.832 16.2331 57.668 15.791C57.5039 15.349 57.2533 14.9935 56.916 14.7246C56.5788 14.4512 56.1458 14.3145 55.6172 14.3145C55.0977 14.3145 54.6693 14.4512 54.332 14.7246C53.9948 14.9935 53.7441 15.349 53.5801 15.791C53.416 16.2331 53.334 16.7116 53.334 17.2266C53.334 17.7324 53.416 18.2064 53.5801 18.6484C53.7441 19.0859 53.9948 19.4391 54.332 19.708C54.6693 19.9769 55.0977 20.1113 55.6172 20.1113ZM62.4668 21.1777C61.9837 21.1777 61.5439 21.0866 61.1475 20.9043C60.751 20.7174 60.4365 20.4486 60.2041 20.0977C59.9717 19.7467 59.8555 19.3229 59.8555 18.8262C59.8555 18.3887 59.9421 18.0355 60.1152 17.7666C60.2884 17.4932 60.5186 17.279 60.8057 17.124C61.0973 16.9645 61.4163 16.846 61.7627 16.7686C62.1136 16.6911 62.4668 16.6296 62.8223 16.584C63.2871 16.5247 63.6631 16.4792 63.9502 16.4473C64.2419 16.4154 64.4538 16.3607 64.5859 16.2832C64.7227 16.2057 64.791 16.0736 64.791 15.8867V15.8457C64.791 15.3581 64.6566 14.9798 64.3877 14.7109C64.1234 14.4375 63.7201 14.3008 63.1777 14.3008C62.6217 14.3008 62.1842 14.4238 61.8652 14.6699C61.5462 14.9115 61.3229 15.1712 61.1953 15.4492L60.0742 15.0527C60.2747 14.5879 60.5413 14.2256 60.874 13.9658C61.2113 13.7061 61.5758 13.5238 61.9678 13.4189C62.3643 13.3141 62.7539 13.2617 63.1367 13.2617C63.3828 13.2617 63.6654 13.2913 63.9844 13.3506C64.3034 13.4053 64.6133 13.5238 64.9141 13.7061C65.2194 13.8838 65.4701 14.1549 65.666 14.5195C65.8665 14.8796 65.9668 15.3626 65.9668 15.9688V21H64.791V19.9609H64.7363C64.6589 20.125 64.5267 20.3027 64.3398 20.4941C64.153 20.681 63.9046 20.8428 63.5947 20.9795C63.2894 21.1117 62.9134 21.1777 62.4668 21.1777ZM62.6445 20.125C63.1094 20.125 63.5013 20.0339 63.8203 19.8516C64.1393 19.6693 64.3809 19.4346 64.5449 19.1475C64.709 18.8558 64.791 18.5527 64.791 18.2383V17.1582C64.7409 17.2174 64.6315 17.2721 64.4629 17.3223C64.2988 17.3678 64.1074 17.4089 63.8887 17.4453C63.6745 17.4818 63.4648 17.5137 63.2598 17.541C63.0547 17.5638 62.8906 17.582 62.7676 17.5957C62.4622 17.6367 62.1774 17.7028 61.9131 17.7939C61.6488 17.8805 61.4346 18.0104 61.2705 18.1836C61.111 18.3568 61.0312 18.5938 61.0312 18.8945C61.0312 19.3001 61.1816 19.6077 61.4824 19.8174C61.7878 20.0225 62.1751 20.125 62.6445 20.125ZM70.3418 21.1641C69.7038 21.1641 69.141 21.0023 68.6533 20.6787C68.1657 20.3551 67.7852 19.8971 67.5117 19.3047C67.2383 18.7077 67.1016 18.0059 67.1016 17.1992C67.1016 16.3971 67.2383 15.7021 67.5117 15.1143C67.7897 14.5218 68.1725 14.0661 68.6602 13.7471C69.1478 13.4235 69.7129 13.2617 70.3555 13.2617C70.8568 13.2617 71.251 13.3438 71.5381 13.5078C71.8298 13.6719 72.0531 13.8587 72.208 14.0684C72.363 14.2734 72.4837 14.4421 72.5703 14.5742H72.666V10.8145H73.8281V21H72.707V19.8242H72.5703C72.4837 19.9609 72.3607 20.1364 72.2012 20.3506C72.0417 20.5602 71.8138 20.7493 71.5176 20.918C71.2259 21.082 70.834 21.1641 70.3418 21.1641ZM70.4922 20.1113C70.9661 20.1113 71.3649 19.9883 71.6885 19.7422C72.012 19.4915 72.2581 19.1475 72.4268 18.71C72.5954 18.2679 72.6797 17.7598 72.6797 17.1855C72.6797 16.6113 72.5977 16.11 72.4336 15.6816C72.2695 15.2487 72.0234 14.9137 71.6953 14.6768C71.3717 14.4352 70.9707 14.3145 70.4922 14.3145C70 14.3145 69.5898 14.4421 69.2617 14.6973C68.9336 14.9525 68.6875 15.2965 68.5234 15.7295C68.3594 16.1624 68.2773 16.6478 68.2773 17.1855C68.2773 17.7279 68.3594 18.2201 68.5234 18.6621C68.6921 19.1042 68.9404 19.4574 69.2686 19.7217C69.5967 19.9814 70.0046 20.1113 70.4922 20.1113Z" fill="white"/>
<path d="M43.1436 23.1587C43.4355 22.9258 43.8013 22.8484 44.1484 22.9204C44.3805 22.9686 44.5701 23.0746 44.7168 23.187L44.8496 23.2993L44.8535 23.3042L56.2754 34.1636C56.5202 34.3966 56.8795 34.8555 56.7842 35.4644C56.6725 36.1779 56.0662 36.461 55.6836 36.5376L55.6768 36.5386L55.6689 36.5405L49.542 37.6724L45.2285 44.8794C45.1372 45.032 44.9938 45.2338 44.7783 45.3872C44.5465 45.5522 44.0878 45.7406 43.5938 45.4849C43.1934 45.2775 43.0489 44.9071 42.9971 44.7397C42.9338 44.5356 42.9128 44.3232 42.9102 44.1333L42.9111 44.1323L42.6094 24.4878L42.6104 24.4868C42.607 24.2805 42.6263 24.0595 42.6914 23.8452C42.7545 23.6377 42.8828 23.3667 43.1436 23.1587Z" fill="#0D1016" stroke="white" stroke-width="2"/>
<defs>
<linearGradient id="paint0_linear_5207_16623" x1="44.5" y1="0" x2="44.5" y2="32.0063" gradientUnits="userSpaceOnUse">
<stop stop-color="white" stop-opacity="0.05"/>
<stop offset="1" stop-color="white" stop-opacity="0"/>
</linearGradient>
</defs>
</svg>
