<svg width="130" height="47" viewBox="0 0 130 47" fill="none" xmlns="http://www.w3.org/2000/svg">
<rect width="130" height="32" rx="16" fill="#1A1A1C"/>
<rect x="1" width="128" height="31" rx="15.5" fill="url(#paint0_linear_3907_4596)"/>
<path d="M15.3262 21H14.0273L17.7734 10.8145H19.0449L22.7773 21H21.4922L18.4434 12.4277H18.3613L15.3262 21ZM15.8047 17.0215H21.0137V18.1152H15.8047V17.0215ZM26.4277 21.1641C25.7897 21.1641 25.2269 21.0023 24.7393 20.6787C24.2516 20.3551 23.8711 19.8971 23.5977 19.3047C23.3242 18.7077 23.1875 18.0059 23.1875 17.1992C23.1875 16.3971 23.3242 15.7021 23.5977 15.1143C23.8757 14.5218 24.2585 14.0661 24.7461 13.7471C25.2337 13.4235 25.7988 13.2617 26.4414 13.2617C26.9427 13.2617 27.3369 13.3438 27.624 13.5078C27.9157 13.6719 28.139 13.8587 28.2939 14.0684C28.4489 14.2734 28.5697 14.4421 28.6562 14.5742H28.752V10.8145H29.9141V21H28.793V19.8242H28.6562C28.5697 19.9609 28.4466 20.1364 28.2871 20.3506C28.1276 20.5602 27.8997 20.7493 27.6035 20.918C27.3118 21.082 26.9199 21.1641 26.4277 21.1641ZM26.5781 20.1113C27.0521 20.1113 27.4508 19.9883 27.7744 19.7422C28.098 19.4915 28.3441 19.1475 28.5127 18.71C28.6813 18.2679 28.7656 17.7598 28.7656 17.1855C28.7656 16.6113 28.6836 16.11 28.5195 15.6816C28.3555 15.2487 28.1094 14.9137 27.7812 14.6768C27.4577 14.4352 27.0566 14.3145 26.5781 14.3145C26.0859 14.3145 25.6758 14.4421 25.3477 14.6973C25.0195 14.9525 24.7734 15.2965 24.6094 15.7295C24.4453 16.1624 24.3633 16.6478 24.3633 17.1855C24.3633 17.7279 24.4453 18.2201 24.6094 18.6621C24.778 19.1042 25.0264 19.4574 25.3545 19.7217C25.6826 19.9814 26.0905 20.1113 26.5781 20.1113ZM34.2891 21.1641C33.651 21.1641 33.0882 21.0023 32.6006 20.6787C32.113 20.3551 31.7324 19.8971 31.459 19.3047C31.1855 18.7077 31.0488 18.0059 31.0488 17.1992C31.0488 16.3971 31.1855 15.7021 31.459 15.1143C31.737 14.5218 32.1198 14.0661 32.6074 13.7471C33.0951 13.4235 33.6602 13.2617 34.3027 13.2617C34.804 13.2617 35.1982 13.3438 35.4854 13.5078C35.777 13.6719 36.0003 13.8587 36.1553 14.0684C36.3102 14.2734 36.431 14.4421 36.5176 14.5742H36.6133V10.8145H37.7754V21H36.6543V19.8242H36.5176C36.431 19.9609 36.3079 20.1364 36.1484 20.3506C35.9889 20.5602 35.7611 20.7493 35.4648 20.918C35.1732 21.082 34.7812 21.1641 34.2891 21.1641ZM34.4395 20.1113C34.9134 20.1113 35.3122 19.9883 35.6357 19.7422C35.9593 19.4915 36.2054 19.1475 36.374 18.71C36.5426 18.2679 36.627 17.7598 36.627 17.1855C36.627 16.6113 36.5449 16.11 36.3809 15.6816C36.2168 15.2487 35.9707 14.9137 35.6426 14.6768C35.319 14.4352 34.918 14.3145 34.4395 14.3145C33.9473 14.3145 33.5371 14.4421 33.209 14.6973C32.8809 14.9525 32.6348 15.2965 32.4707 15.7295C32.3066 16.1624 32.2246 16.6478 32.2246 17.1855C32.2246 17.7279 32.3066 18.2201 32.4707 18.6621C32.6393 19.1042 32.8877 19.4574 33.2158 19.7217C33.5439 19.9814 33.9518 20.1113 34.4395 20.1113ZM42.7109 10.8145H44.1875L47.6465 19.2637H47.7695L51.2285 10.8145H52.7529V21H51.543V13.2617H51.4473L48.2412 21H47.1338L43.9688 13.2617H43.873V21H42.7109V10.8145ZM57.5039 21.1641C56.8158 21.1641 56.2119 21 55.6924 20.6719C55.1729 20.3438 54.7673 19.8835 54.4756 19.291C54.1885 18.6986 54.0449 18.0104 54.0449 17.2266C54.0449 16.429 54.1885 15.734 54.4756 15.1416C54.7673 14.5446 55.1729 14.082 55.6924 13.7539C56.2119 13.4258 56.8158 13.2617 57.5039 13.2617C58.1966 13.2617 58.8027 13.4258 59.3223 13.7539C59.8418 14.082 60.2474 14.5446 60.5391 15.1416C60.8307 15.734 60.9766 16.429 60.9766 17.2266C60.9766 18.0104 60.8307 18.6986 60.5391 19.291C60.2474 19.8835 59.8418 20.3438 59.3223 20.6719C58.8027 21 58.1966 21.1641 57.5039 21.1641ZM57.5039 20.1113C58.0326 20.1113 58.4655 19.9769 58.8027 19.708C59.14 19.4391 59.3906 19.0859 59.5547 18.6484C59.7188 18.2064 59.8008 17.7324 59.8008 17.2266C59.8008 16.7116 59.7188 16.2331 59.5547 15.791C59.3906 15.349 59.14 14.9935 58.8027 14.7246C58.4655 14.4512 58.0326 14.3145 57.5039 14.3145C56.9844 14.3145 56.556 14.4512 56.2188 14.7246C55.8815 14.9935 55.6309 15.349 55.4668 15.791C55.3027 16.2331 55.2207 16.7116 55.2207 17.2266C55.2207 17.7324 55.3027 18.2064 55.4668 18.6484C55.6309 19.0859 55.8815 19.4391 56.2188 19.708C56.556 19.9769 56.9844 20.1113 57.5039 20.1113ZM62.1113 21V13.3574H63.2324V14.5195H63.3145C63.4557 14.1413 63.7087 13.8359 64.0732 13.6035C64.4424 13.3665 64.8548 13.248 65.3105 13.248C65.3971 13.248 65.5042 13.2503 65.6318 13.2549C65.7594 13.2549 65.8574 13.2572 65.9258 13.2617V14.4512C65.8848 14.4421 65.7936 14.4284 65.6523 14.4102C65.5111 14.3919 65.3607 14.3828 65.2012 14.3828C64.832 14.3828 64.5016 14.4603 64.21 14.6152C63.9183 14.7702 63.6882 14.9821 63.5195 15.251C63.3555 15.5199 63.2734 15.8275 63.2734 16.1738V21H62.1113ZM69.6309 21.1641C68.8971 21.1641 68.2614 21 67.7236 20.6719C67.1904 20.3438 66.7803 19.8857 66.4932 19.2979C66.2061 18.7054 66.0625 18.0195 66.0625 17.2402C66.0625 16.4564 66.2038 15.766 66.4863 15.1689C66.7689 14.5719 67.1654 14.1048 67.6758 13.7676C68.1908 13.4303 68.7923 13.2617 69.4805 13.2617C69.877 13.2617 70.2712 13.3278 70.6631 13.46C71.055 13.5921 71.4105 13.8063 71.7295 14.1025C72.0531 14.3988 72.3105 14.7907 72.502 15.2783C72.6934 15.766 72.7891 16.3652 72.7891 17.0762V17.582H66.8965V16.5703H72.1533L71.6133 16.9531C71.6133 16.4427 71.5335 15.9893 71.374 15.5928C71.2145 15.1963 70.9753 14.8841 70.6562 14.6562C70.3418 14.4284 69.9499 14.3145 69.4805 14.3145C69.0111 14.3145 68.6077 14.4307 68.2705 14.6631C67.9378 14.891 67.6826 15.1895 67.5049 15.5586C67.3271 15.9277 67.2383 16.3242 67.2383 16.748V17.418C67.2383 17.9967 67.3385 18.4867 67.5391 18.8877C67.7396 19.2887 68.0199 19.5941 68.3799 19.8037C68.7399 20.0088 69.1569 20.1113 69.6309 20.1113C69.9362 20.1113 70.2142 20.068 70.4648 19.9814C70.7155 19.8903 70.932 19.7559 71.1143 19.5781C71.2965 19.3958 71.4355 19.1725 71.5312 18.9082L72.666 19.2363C72.5475 19.6191 72.347 19.9564 72.0645 20.248C71.7865 20.5352 71.4401 20.7607 71.0254 20.9248C70.6107 21.0843 70.1458 21.1641 69.6309 21.1641ZM80.0488 21.1641C79.4108 21.1641 78.848 21.0023 78.3604 20.6787C77.8727 20.3551 77.4922 19.8971 77.2188 19.3047C76.9453 18.7077 76.8086 18.0059 76.8086 17.1992C76.8086 16.3971 76.9453 15.7021 77.2188 15.1143C77.4967 14.5218 77.8796 14.0661 78.3672 13.7471C78.8548 13.4235 79.4199 13.2617 80.0625 13.2617C80.5638 13.2617 80.958 13.3438 81.2451 13.5078C81.5368 13.6719 81.7601 13.8587 81.915 14.0684C82.07 14.2734 82.1908 14.4421 82.2773 14.5742H82.373V10.8145H83.5352V21H82.4141V19.8242H82.2773C82.1908 19.9609 82.0677 20.1364 81.9082 20.3506C81.7487 20.5602 81.5208 20.7493 81.2246 20.918C80.9329 21.082 80.541 21.1641 80.0488 21.1641ZM80.1992 20.1113C80.6732 20.1113 81.0719 19.9883 81.3955 19.7422C81.7191 19.4915 81.9652 19.1475 82.1338 18.71C82.3024 18.2679 82.3867 17.7598 82.3867 17.1855C82.3867 16.6113 82.3047 16.11 82.1406 15.6816C81.9766 15.2487 81.7305 14.9137 81.4023 14.6768C81.0788 14.4352 80.6777 14.3145 80.1992 14.3145C79.707 14.3145 79.2969 14.4421 78.9688 14.6973C78.6406 14.9525 78.3945 15.2965 78.2305 15.7295C78.0664 16.1624 77.9844 16.6478 77.9844 17.1855C77.9844 17.7279 78.0664 18.2201 78.2305 18.6621C78.3991 19.1042 78.6475 19.4574 78.9756 19.7217C79.3037 19.9814 79.7116 20.1113 80.1992 20.1113ZM88.2383 21.1641C87.5046 21.1641 86.8688 21 86.3311 20.6719C85.7979 20.3438 85.3877 19.8857 85.1006 19.2979C84.8135 18.7054 84.6699 18.0195 84.6699 17.2402C84.6699 16.4564 84.8112 15.766 85.0938 15.1689C85.3763 14.5719 85.7728 14.1048 86.2832 13.7676C86.7982 13.4303 87.3997 13.2617 88.0879 13.2617C88.4844 13.2617 88.8786 13.3278 89.2705 13.46C89.6624 13.5921 90.0179 13.8063 90.3369 14.1025C90.6605 14.3988 90.918 14.7907 91.1094 15.2783C91.3008 15.766 91.3965 16.3652 91.3965 17.0762V17.582H85.5039V16.5703H90.7607L90.2207 16.9531C90.2207 16.4427 90.141 15.9893 89.9814 15.5928C89.8219 15.1963 89.5827 14.8841 89.2637 14.6562C88.9492 14.4284 88.5573 14.3145 88.0879 14.3145C87.6185 14.3145 87.2152 14.4307 86.8779 14.6631C86.5452 14.891 86.29 15.1895 86.1123 15.5586C85.9346 15.9277 85.8457 16.3242 85.8457 16.748V17.418C85.8457 17.9967 85.946 18.4867 86.1465 18.8877C86.347 19.2887 86.6273 19.5941 86.9873 19.8037C87.3473 20.0088 87.7643 20.1113 88.2383 20.1113C88.5436 20.1113 88.8216 20.068 89.0723 19.9814C89.3229 19.8903 89.5394 19.7559 89.7217 19.5781C89.904 19.3958 90.043 19.1725 90.1387 18.9082L91.2734 19.2363C91.1549 19.6191 90.9544 19.9564 90.6719 20.248C90.3939 20.5352 90.0475 20.7607 89.6328 20.9248C89.2181 21.0843 88.7533 21.1641 88.2383 21.1641ZM95.8125 13.3574V14.3555H91.8613V13.3574H95.8125ZM93.0098 11.5391H94.1719V18.8125C94.1719 19.209 94.2539 19.5007 94.418 19.6875C94.582 19.8698 94.8418 19.9609 95.1973 19.9609C95.2747 19.9609 95.3545 19.9564 95.4365 19.9473C95.5231 19.9382 95.6165 19.9245 95.7168 19.9062L95.9629 20.959C95.8535 21 95.7191 21.0319 95.5596 21.0547C95.4046 21.082 95.2474 21.0957 95.0879 21.0957C94.4727 21.0957 93.9714 20.9134 93.584 20.5488C93.2012 20.1842 93.0098 19.7103 93.0098 19.127V11.5391ZM99.1758 21.1777C98.6927 21.1777 98.2529 21.0866 97.8564 20.9043C97.46 20.7174 97.1455 20.4486 96.9131 20.0977C96.6807 19.7467 96.5645 19.3229 96.5645 18.8262C96.5645 18.3887 96.651 18.0355 96.8242 17.7666C96.9974 17.4932 97.2275 17.279 97.5146 17.124C97.8063 16.9645 98.1253 16.846 98.4717 16.7686C98.8226 16.6911 99.1758 16.6296 99.5312 16.584C99.9961 16.5247 100.372 16.4792 100.659 16.4473C100.951 16.4154 101.163 16.3607 101.295 16.2832C101.432 16.2057 101.5 16.0736 101.5 15.8867V15.8457C101.5 15.3581 101.366 14.9798 101.097 14.7109C100.832 14.4375 100.429 14.3008 99.8867 14.3008C99.3307 14.3008 98.8932 14.4238 98.5742 14.6699C98.2552 14.9115 98.0319 15.1712 97.9043 15.4492L96.7832 15.0527C96.9837 14.5879 97.2503 14.2256 97.583 13.9658C97.9202 13.7061 98.2848 13.5238 98.6768 13.4189C99.0732 13.3141 99.4629 13.2617 99.8457 13.2617C100.092 13.2617 100.374 13.2913 100.693 13.3506C101.012 13.4053 101.322 13.5238 101.623 13.7061C101.928 13.8838 102.179 14.1549 102.375 14.5195C102.576 14.8796 102.676 15.3626 102.676 15.9688V21H101.5V19.9609H101.445C101.368 20.125 101.236 20.3027 101.049 20.4941C100.862 20.681 100.614 20.8428 100.304 20.9795C99.9984 21.1117 99.6224 21.1777 99.1758 21.1777ZM99.3535 20.125C99.8184 20.125 100.21 20.0339 100.529 19.8516C100.848 19.6693 101.09 19.4346 101.254 19.1475C101.418 18.8558 101.5 18.5527 101.5 18.2383V17.1582C101.45 17.2174 101.34 17.2721 101.172 17.3223C101.008 17.3678 100.816 17.4089 100.598 17.4453C100.383 17.4818 100.174 17.5137 99.9688 17.541C99.7637 17.5638 99.5996 17.582 99.4766 17.5957C99.1712 17.6367 98.8864 17.7028 98.6221 17.7939C98.3577 17.8805 98.1436 18.0104 97.9795 18.1836C97.82 18.3568 97.7402 18.5938 97.7402 18.8945C97.7402 19.3001 97.8906 19.6077 98.1914 19.8174C98.4967 20.0225 98.8841 20.125 99.3535 20.125ZM104.18 21V13.3574H105.342V21H104.18ZM104.768 12.0859C104.54 12.0859 104.344 12.0085 104.18 11.8535C104.016 11.6986 103.934 11.5117 103.934 11.293C103.934 11.0742 104.016 10.8874 104.18 10.7324C104.344 10.5775 104.54 10.5 104.768 10.5C104.995 10.5 105.191 10.5775 105.355 10.7324C105.52 10.8874 105.602 11.0742 105.602 11.293C105.602 11.5117 105.52 11.6986 105.355 11.8535C105.191 12.0085 104.995 12.0859 104.768 12.0859ZM108.008 10.8145V21H106.846V10.8145H108.008ZM114.912 15.0801L113.859 15.3672C113.759 15.1074 113.586 14.8613 113.34 14.6289C113.098 14.3919 112.72 14.2734 112.205 14.2734C111.74 14.2734 111.353 14.3828 111.043 14.6016C110.733 14.8158 110.578 15.0846 110.578 15.4082C110.578 15.6999 110.683 15.9323 110.893 16.1055C111.107 16.2786 111.439 16.4199 111.891 16.5293L113.025 16.8027C113.704 16.9668 114.21 17.2197 114.543 17.5615C114.88 17.9033 115.049 18.3385 115.049 18.8672C115.049 19.3047 114.924 19.6966 114.673 20.043C114.422 20.3893 114.074 20.6628 113.627 20.8633C113.18 21.0638 112.661 21.1641 112.068 21.1641C111.289 21.1641 110.644 20.9932 110.134 20.6514C109.628 20.3096 109.307 19.8151 109.17 19.168L110.277 18.8945C110.382 19.3047 110.583 19.6123 110.879 19.8174C111.18 20.0225 111.572 20.125 112.055 20.125C112.597 20.125 113.03 20.0088 113.354 19.7764C113.682 19.5394 113.846 19.2591 113.846 18.9355C113.846 18.3978 113.467 18.0378 112.711 17.8555L111.439 17.5547C110.738 17.3861 110.223 17.1286 109.895 16.7822C109.566 16.4359 109.402 16.0007 109.402 15.4766C109.402 15.0436 109.523 14.6608 109.765 14.3281C110.011 13.9954 110.346 13.7357 110.77 13.5488C111.193 13.3574 111.672 13.2617 112.205 13.2617C112.966 13.2617 113.561 13.4303 113.989 13.7676C114.422 14.1003 114.73 14.5378 114.912 15.0801Z" fill="white"/>
<path d="M63.4619 23.062C64.0607 22.7352 64.6765 22.9398 65.0625 23.188L65.0674 23.1909L81.75 34.0493V34.0503C81.9264 34.1652 82.1216 34.3207 82.2715 34.5308C82.4226 34.7426 82.5861 35.1005 82.4873 35.5327C82.3889 35.963 82.088 36.2127 81.8643 36.3374C81.6413 36.4616 81.4022 36.5192 81.1973 36.5474L81.1865 36.5493L71.9648 37.7153L65.5752 45.0239C65.4332 45.1864 65.2465 45.3568 65.0098 45.4722C64.7679 45.59 64.4108 45.6762 64.0254 45.5396C63.6376 45.402 63.4133 45.1068 63.2998 44.856C63.19 44.613 63.156 44.3594 63.1514 44.1411L62.7119 24.4946L62.7129 24.4937C62.7021 24.0284 62.8564 23.3927 63.4619 23.062Z" fill="#0D1016" stroke="white" stroke-width="2"/>
<defs>
<linearGradient id="paint0_linear_3907_4596" x1="65" y1="0" x2="65" y2="31" gradientUnits="userSpaceOnUse">
<stop stop-color="white" stop-opacity="0.05"/>
<stop offset="1" stop-color="white" stop-opacity="0"/>
</linearGradient>
</defs>
</svg>
