<svg width="122" height="26" viewBox="0 0 122 26" fill="none" xmlns="http://www.w3.org/2000/svg">
<rect y="10.7656" width="0.941176" height="4.58824" rx="0.470588" fill="#1A1A1C" fill-opacity="0.4"/>
<rect x="1.88281" y="8.32812" width="0.941176" height="9.17647" rx="0.470588" fill="#1A1A1C" fill-opacity="0.4"/>
<rect x="3.76562" y="6.90625" width="0.941176" height="12.2353" rx="0.470588" fill="#1A1A1C" fill-opacity="0.4"/>
<rect x="5.64844" y="7.71875" width="0.941176" height="10.7059" rx="0.470588" fill="#1A1A1C" fill-opacity="0.4"/>
<rect x="7.53125" y="7.71875" width="0.941176" height="10.7059" rx="0.470588" fill="#1A1A1C" fill-opacity="0.4"/>
<rect x="9.40625" y="6.09375" width="0.941176" height="13.7647" rx="0.470588" fill="#1A1A1C" fill-opacity="0.4"/>
<rect x="11.2969" y="3.04688" width="0.941176" height="19.8824" rx="0.470588" fill="#1A1A1C" fill-opacity="0.4"/>
<rect x="13.1719" y="1.625" width="0.941176" height="22.9412" rx="0.470588" fill="#1A1A1C" fill-opacity="0.4"/>
<rect x="15.0625" y="1.625" width="0.941176" height="22.9412" rx="0.470588" fill="#1A1A1C" fill-opacity="0.4"/>
<rect x="16.9375" width="0.941176" height="26" rx="0.470588" fill="#1A1A1C" fill-opacity="0.4"/>
<rect x="18.8281" y="4.67188" width="0.941176" height="16.8235" rx="0.470588" fill="#1A1A1C" fill-opacity="0.4"/>
<rect x="20.7031" y="5.28125" width="0.941176" height="15.2941" rx="0.470588" fill="#1A1A1C" fill-opacity="0.4"/>
<rect x="22.5938" y="6.90625" width="0.941176" height="12.2353" rx="0.470588" fill="#1A1A1C" fill-opacity="0.4"/>
<rect x="24.4688" y="6.09375" width="0.941176" height="13.7647" rx="0.470588" fill="#1A1A1C" fill-opacity="0.4"/>
<rect x="26.3516" y="5.28125" width="0.941176" height="15.2941" rx="0.470588" fill="#1A1A1C" fill-opacity="0.4"/>
<rect x="28.2344" y="6.09375" width="0.941176" height="13.7647" rx="0.470588" fill="#1A1A1C" fill-opacity="0.4"/>
<rect x="30.1172" y="6.09375" width="0.941176" height="13.7647" rx="0.470588" fill="#1A1A1C" fill-opacity="0.4"/>
<rect x="32" y="6.09375" width="0.941176" height="13.7647" rx="0.470588" fill="#1A1A1C" fill-opacity="0.4"/>
<rect x="33.8828" y="9.95312" width="0.941176" height="6.11765" rx="0.470588" fill="#1A1A1C" fill-opacity="0.4"/>
<rect x="35.7656" y="7.71875" width="0.941176" height="10.7059" rx="0.470588" fill="#1A1A1C" fill-opacity="0.4"/>
<rect x="37.6484" y="8.32812" width="0.941176" height="9.17647" rx="0.470588" fill="#1A1A1C" fill-opacity="0.4"/>
<rect x="39.5312" y="8.32812" width="0.941176" height="9.17647" rx="0.470588" fill="#1A1A1C" fill-opacity="0.4"/>
<rect x="41.4062" y="11.375" width="0.941176" height="3.05882" rx="0.470588" fill="#1A1A1C" fill-opacity="0.4"/>
<rect x="43.2969" y="9.14062" width="0.941176" height="7.64706" rx="0.470588" fill="#1A1A1C" fill-opacity="0.4"/>
<rect x="45.1719" y="6.90625" width="0.941176" height="12.2353" rx="0.470588" fill="#1A1A1C" fill-opacity="0.4"/>
<rect x="47.0625" y="5.28125" width="0.941176" height="15.2941" rx="0.470588" fill="#1A1A1C" fill-opacity="0.4"/>
<rect x="48.9375" y="3.85938" width="0.941176" height="18.3529" rx="0.470588" fill="#1A1A1C" fill-opacity="0.4"/>
<rect x="50.8281" y="3.85938" width="0.941176" height="18.3529" rx="0.470588" fill="#1A1A1C" fill-opacity="0.4"/>
<rect x="52.7031" y="5.28125" width="0.941176" height="15.2941" rx="0.470588" fill="#1A1A1C" fill-opacity="0.4"/>
<rect x="54.5938" y="8.32812" width="0.941176" height="9.17647" rx="0.470588" fill="#1A1A1C" fill-opacity="0.4"/>
<rect x="56.4688" y="6.09375" width="0.941176" height="13.7647" rx="0.470588" fill="#1A1A1C" fill-opacity="0.4"/>
<rect x="58.3516" y="4.67188" width="0.941176" height="16.8235" rx="0.470588" fill="#1A1A1C" fill-opacity="0.4"/>
<rect x="60.2344" y="1.625" width="0.941176" height="22.9412" rx="0.470588" fill="#1A1A1C" fill-opacity="0.4"/>
<rect x="62.1172" y="2.23438" width="0.941176" height="21.4118" rx="0.470588" fill="#1A1A1C" fill-opacity="0.4"/>
<rect x="64" y="2.23438" width="0.941176" height="21.4118" rx="0.470588" fill="#1A1A1C" fill-opacity="0.4"/>
<rect x="65.8828" y="4.67188" width="0.941176" height="16.8235" rx="0.470588" fill="#1A1A1C" fill-opacity="0.4"/>
<rect x="67.7656" y="6.09375" width="0.941176" height="13.7647" rx="0.470588" fill="#1A1A1C" fill-opacity="0.4"/>
<rect x="69.6484" y="1.625" width="0.941176" height="22.9412" rx="0.470588" fill="#1A1A1C" fill-opacity="0.4"/>
<rect x="71.5312" y="1.625" width="0.941176" height="22.9412" rx="0.470588" fill="#1A1A1C" fill-opacity="0.4"/>
<rect x="73.4062" y="3.85938" width="0.941176" height="18.3529" rx="0.470588" fill="#1A1A1C" fill-opacity="0.4"/>
<rect x="75.2969" y="3.85938" width="0.941176" height="18.3529" rx="0.470588" fill="#1A1A1C" fill-opacity="0.4"/>
<rect x="77.1719" y="5.28125" width="0.941176" height="15.2941" rx="0.470588" fill="#1A1A1C" fill-opacity="0.4"/>
<rect x="79.0625" y="6.90625" width="0.941176" height="12.2353" rx="0.470588" fill="#1A1A1C" fill-opacity="0.4"/>
<rect x="80.9375" y="8.32812" width="0.941176" height="9.17647" rx="0.470588" fill="#1A1A1C" fill-opacity="0.4"/>
<rect x="82.8281" y="9.95312" width="0.941176" height="6.11765" rx="0.470588" fill="#1A1A1C" fill-opacity="0.4"/>
<rect x="84.7031" y="11.375" width="0.941176" height="3.05882" rx="0.470588" fill="#1A1A1C" fill-opacity="0.4"/>
<path d="M121.641 13C121.641 16.4478 120.218 19.7544 117.687 22.1924C115.155 24.6304 111.721 26 108.141 26C104.56 26 101.126 24.6304 98.5947 22.1924C96.0629 19.7544 94.6406 16.4478 94.6406 13C94.6406 9.55219 96.0629 6.24558 98.5947 3.80761C101.126 1.36964 104.56 0 108.141 0C111.721 0 115.155 1.36964 117.687 3.80761C120.218 6.24558 121.641 9.55219 121.641 13ZM106.099 8.27612C105.973 8.18962 105.824 8.13823 105.67 8.12758C105.515 8.11692 105.361 8.14742 105.223 8.21572C105.085 8.28402 104.97 8.3875 104.889 8.51481C104.808 8.64213 104.766 8.78836 104.766 8.9375V17.0625C104.766 17.2116 104.808 17.3579 104.889 17.4852C104.97 17.6125 105.085 17.716 105.223 17.7843C105.361 17.8526 105.515 17.8831 105.67 17.8724C105.824 17.8618 105.973 17.8104 106.099 17.7239L112.005 13.6614C112.114 13.5862 112.204 13.487 112.265 13.372C112.327 13.2569 112.359 13.1294 112.359 13C112.359 12.8706 112.327 12.7431 112.265 12.628C112.204 12.513 112.114 12.4138 112.005 12.3386L106.099 8.27612Z" fill="#1A1A1C"/>
</svg>
